<svg id="mermaid-1766349836281" width="100%" xmlns="http://www.w3.org/2000/svg" style="max-width: 100%; height: auto; background-color: transparent;" viewBox="-10.84375 0 489.5546875 487.078125" role="graphics-document document" aria-roledescription="er"><style>#mermaid-1766349836281{font-family:monospace;font-size:16px;fill:#ccc;}#mermaid-1766349836281 .error-icon{fill:#a44141;}#mermaid-1766349836281 .error-text{fill:#ddd;stroke:#ddd;}#mermaid-1766349836281 .edge-thickness-normal{stroke-width:2px;}#mermaid-1766349836281 .edge-thickness-thick{stroke-width:3.5px;}#mermaid-1766349836281 .edge-pattern-solid{stroke-dasharray:0;}#mermaid-1766349836281 .edge-pattern-dashed{stroke-dasharray:3;}#mermaid-1766349836281 .edge-pattern-dotted{stroke-dasharray:2;}#mermaid-1766349836281 .marker{fill:lightgrey;stroke:lightgrey;}#mermaid-1766349836281 .marker.cross{stroke:lightgrey;}#mermaid-1766349836281 svg{font-family:monospace;font-size:16px;}#mermaid-1766349836281 .entityBox{fill:#1f2020;stroke:#81B1DB;}#mermaid-1766349836281 .attributeBoxOdd{fill:hsl(0, 0%, 32%);stroke:#81B1DB;}#mermaid-1766349836281 .attributeBoxEven{fill:hsl(0, 0%, 22%);stroke:#81B1DB;}#mermaid-1766349836281 .relationshipLabelBox{fill:hsl(20, 1.5873015873%, 12.3529411765%);opacity:0.7;background-color:hsl(20, 1.5873015873%, 12.3529411765%);}#mermaid-1766349836281 .relationshipLabelBox rect{opacity:0.5;}#mermaid-1766349836281 .relationshipLine{stroke:lightgrey;}#mermaid-1766349836281 .entityTitleText{text-anchor:middle;font-size:18px;fill:#ccc;}#mermaid-1766349836281 #MD_PARENT_START{fill:#f5f5f5!important;stroke:lightgrey!important;stroke-width:1;}#mermaid-1766349836281 #MD_PARENT_END{fill:#f5f5f5!important;stroke:lightgrey!important;stroke-width:1;}#mermaid-1766349836281 :root{--mermaid-font-family:monospace;}</style><g></g><defs><marker id="MD_PARENT_START" refX="0" refY="7" markerWidth="190" markerHeight="240" orient="auto"><path d="M 18,7 L9,13 L1,7 L9,1 Z"></path></marker></defs><defs><marker id="MD_PARENT_END" refX="19" refY="7" markerWidth="20" markerHeight="28" orient="auto"><path d="M 18,7 L9,13 L1,7 L9,1 Z"></path></marker></defs><defs><marker id="ONLY_ONE_START" refX="0" refY="9" markerWidth="18" markerHeight="18" orient="auto"><path stroke="gray" fill="none" d="M9,0 L9,18 M15,0 L15,18"></path></marker></defs><defs><marker id="ONLY_ONE_END" refX="18" refY="9" markerWidth="18" markerHeight="18" orient="auto"><path stroke="gray" fill="none" d="M3,0 L3,18 M9,0 L9,18"></path></marker></defs><defs><marker id="ZERO_OR_ONE_START" refX="0" refY="9" markerWidth="30" markerHeight="18" orient="auto"><circle stroke="gray" fill="white" cx="21" cy="9" r="6"></circle><path stroke="gray" fill="none" d="M9,0 L9,18"></path></marker></defs><defs><marker id="ZERO_OR_ONE_END" refX="30" refY="9" markerWidth="30" markerHeight="18" orient="auto"><circle stroke="gray" fill="white" cx="9" cy="9" r="6"></circle><path stroke="gray" fill="none" d="M21,0 L21,18"></path></marker></defs><defs><marker id="ONE_OR_MORE_START" refX="18" refY="18" markerWidth="45" markerHeight="36" orient="auto"><path stroke="gray" fill="none" d="M0,18 Q 18,0 36,18 Q 18,36 0,18 M42,9 L42,27"></path></marker></defs><defs><marker id="ONE_OR_MORE_END" refX="27" refY="18" markerWidth="45" markerHeight="36" orient="auto"><path stroke="gray" fill="none" d="M3,9 L3,27 M9,18 Q27,0 45,18 Q27,36 9,18"></path></marker></defs><defs><marker id="ZERO_OR_MORE_START" refX="18" refY="18" markerWidth="57" markerHeight="36" orient="auto"><circle stroke="gray" fill="white" cx="48" cy="18" r="6"></circle><path stroke="gray" fill="none" d="M0,18 Q18,0 36,18 Q18,36 0,18"></path></marker></defs><defs><marker id="ZERO_OR_MORE_END" refX="39" refY="18" markerWidth="57" markerHeight="36" orient="auto"><circle stroke="gray" fill="white" cx="9" cy="18" r="6"></circle><path stroke="gray" fill="none" d="M21,18 Q39,0 57,18 Q39,36 21,18"></path></marker></defs><path class="er relationshipLine" d="M72.727,109.656L63.939,117.99C55.151,126.323,37.576,142.99,28.788,167.128C20,191.266,20,222.875,20,254.484C20,286.094,20,317.703,24.967,341.841C29.934,365.979,39.869,382.646,44.836,390.979L49.803,399.313" marker-end="url(#ZERO_OR_MORE_END)" marker-start="url(#ONLY_ONE_START)" style="stroke: gray; fill: none;"></path><path class="er relationshipLine" d="M157.615,109.656L164.608,117.99C171.6,126.323,185.585,142.99,192.578,159.656C199.57,176.323,199.57,192.99,199.57,201.323L199.57,209.656" marker-end="url(#ZERO_OR_MORE_END)" marker-start="url(#ONLY_ONE_START)" style="stroke: gray; fill: none;"></path><path class="er relationshipLine" d="M225.367,299.313L230.163,307.646C234.958,315.979,244.55,332.646,259.734,349.313C274.918,365.979,295.695,382.646,306.083,390.979L316.472,399.313" marker-end="url(#ZERO_OR_MORE_END)" marker-start="url(#ONLY_ONE_START)" style="stroke: gray; fill: none;"></path><path class="er relationshipLine" d="M408.711,288.367L408.711,298.525C408.711,308.682,408.711,328.997,403.744,347.488C398.776,365.979,388.842,382.646,383.875,390.979L378.907,399.313" marker-end="url(#ZERO_OR_MORE_END)" marker-start="url(#ONLY_ONE_START)" style="stroke: gray; fill: none;"></path><path class="er relationshipLine" d="M175.934,299.313L171.54,307.646C167.146,315.979,158.358,332.646,146.059,349.313C133.76,365.979,117.951,382.646,110.046,390.979L102.141,399.313" marker-end="url(#ZERO_OR_MORE_END)" marker-start="url(#ONLY_ONE_START)" style="stroke: gray; fill: none;"></path><g id="entity-USER-6e7e2962-0c6f-577d-a7fd-2ce3a0cfd2c8" transform="translate(57.7890625,20 )"><rect class="er entityBox" x="0" y="0" width="124.421875" height="89.65625"></rect><text class="er entityLabel" id="text-entity-USER-6e7e2962-0c6f-577d-a7fd-2ce3a0cfd2c8" x="0" y="0" transform="translate(62.2109375,11.9921875)" style="dominant-baseline: middle; text-anchor: middle; font-family: monospace; font-size: 12px;">USER</text><rect class="er attributeBoxOdd" x="0" y="23.984375" width="46.859375" height="21.890625"></rect><text class="er entityLabel" id="text-entity-USER-6e7e2962-0c6f-577d-a7fd-2ce3a0cfd2c8-attr-1-type" x="0" y="0" transform="translate(5,34.9296875)" style="dominant-baseline: middle; font-family: monospace; font-size: 10.2px;">INT</text><rect class="er attributeBoxOdd" x="46.859375" y="23.984375" width="77.5625" height="21.890625"></rect><text class="er entityLabel" id="text-entity-USER-6e7e2962-0c6f-577d-a7fd-2ce3a0cfd2c8-attr-1-name" x="0" y="0" transform="translate(51.859375,34.9296875)" style="dominant-baseline: middle; font-family: monospace; font-size: 10.2px;">user_id</text><rect class="er attributeBoxEven" x="0" y="45.875" width="46.859375" height="21.890625"></rect><text class="er entityLabel" id="text-entity-USER-6e7e2962-0c6f-577d-a7fd-2ce3a0cfd2c8-attr-2-type" x="0" y="0" transform="translate(5,56.8203125)" style="dominant-baseline: middle; font-family: monospace; font-size: 10.2px;">INT</text><rect class="er attributeBoxEven" x="46.859375" y="45.875" width="77.5625" height="21.890625"></rect><text class="er entityLabel" id="text-entity-USER-6e7e2962-0c6f-577d-a7fd-2ce3a0cfd2c8-attr-2-name" x="0" y="0" transform="translate(51.859375,56.8203125)" style="dominant-baseline: middle; font-family: monospace; font-size: 10.2px;">telegram_id</text><rect class="er attributeBoxOdd" x="0" y="67.765625" width="46.859375" height="21.890625"></rect><text class="er entityLabel" id="text-entity-USER-6e7e2962-0c6f-577d-a7fd-2ce3a0cfd2c8-attr-3-type" x="0" y="0" transform="translate(5,78.7109375)" style="dominant-baseline: middle; font-family: monospace; font-size: 10.2px;">STRING</text><rect class="er attributeBoxOdd" x="46.859375" y="67.765625" width="77.5625" height="21.890625"></rect><text class="er entityLabel" id="text-entity-USER-6e7e2962-0c6f-577d-a7fd-2ce3a0cfd2c8-attr-3-name" x="0" y="0" transform="translate(51.859375,78.7109375)" style="dominant-baseline: middle; font-family: monospace; font-size: 10.2px;">username</text></g><g id="entity-MEME-7f98f312-c992-5137-82ec-333312ce0530" transform="translate(140.4296875,209.65625 )"><rect class="er entityBox" x="0" y="0" width="118.28125" height="89.65625"></rect><text class="er entityLabel" id="text-entity-MEME-7f98f312-c992-5137-82ec-333312ce0530" x="0" y="0" transform="translate(59.140625,11.9921875)" style="dominant-baseline: middle; text-anchor: middle; font-family: monospace; font-size: 12px;">MEME</text><rect class="er attributeBoxOdd" x="0" y="23.984375" width="46.859375" height="21.890625"></rect><text class="er entityLabel" id="text-entity-MEME-7f98f312-c992-5137-82ec-333312ce0530-attr-1-type" x="0" y="0" transform="translate(5,34.9296875)" style="dominant-baseline: middle; font-family: monospace; font-size: 10.2px;">INT</text><rect class="er attributeBoxOdd" x="46.859375" y="23.984375" width="71.421875" height="21.890625"></rect><text class="er entityLabel" id="text-entity-MEME-7f98f312-c992-5137-82ec-333312ce0530-attr-1-name" x="0" y="0" transform="translate(51.859375,34.9296875)" style="dominant-baseline: middle; font-family: monospace; font-size: 10.2px;">meme_id</text><rect class="er attributeBoxEven" x="0" y="45.875" width="46.859375" height="21.890625"></rect><text class="er entityLabel" id="text-entity-MEME-7f98f312-c992-5137-82ec-333312ce0530-attr-2-type" x="0" y="0" transform="translate(5,56.8203125)" style="dominant-baseline: middle; font-family: monospace; font-size: 10.2px;">STRING</text><rect class="er attributeBoxEven" x="46.859375" y="45.875" width="71.421875" height="21.890625"></rect><text class="er entityLabel" id="text-entity-MEME-7f98f312-c992-5137-82ec-333312ce0530-attr-2-name" x="0" y="0" transform="translate(51.859375,56.8203125)" style="dominant-baseline: middle; font-family: monospace; font-size: 10.2px;">media_type</text><rect class="er attributeBoxOdd" x="0" y="67.765625" width="46.859375" height="21.890625"></rect><text class="er entityLabel" id="text-entity-MEME-7f98f312-c992-5137-82ec-333312ce0530-attr-3-type" x="0" y="0" transform="translate(5,78.7109375)" style="dominant-baseline: middle; font-family: monospace; font-size: 10.2px;">STRING</text><rect class="er attributeBoxOdd" x="46.859375" y="67.765625" width="71.421875" height="21.890625"></rect><text class="er entityLabel" id="text-entity-MEME-7f98f312-c992-5137-82ec-333312ce0530-attr-3-name" x="0" y="0" transform="translate(51.859375,78.7109375)" style="dominant-baseline: middle; font-family: monospace; font-size: 10.2px;">file_id</text></g><g id="entity-TAG-a8da97c4-fe96-50e4-85f7-7ca8b26aba43" transform="translate(358.7109375,220.6015625 )"><rect class="er entityBox" x="0" y="0" width="100" height="67.765625"></rect><text class="er entityLabel" id="text-entity-TAG-a8da97c4-fe96-50e4-85f7-7ca8b26aba43" x="0" y="0" transform="translate(50,11.9921875)" style="dominant-baseline: middle; text-anchor: middle; font-family: monospace; font-size: 12px;">TAG</text><rect class="er attributeBoxOdd" x="0" y="23.984375" width="50" height="21.890625"></rect><text class="er entityLabel" id="text-entity-TAG-a8da97c4-fe96-50e4-85f7-7ca8b26aba43-attr-1-type" x="0" y="0" transform="translate(5,34.9296875)" style="dominant-baseline: middle; font-family: monospace; font-size: 10.2px;">INT</text><rect class="er attributeBoxOdd" x="50" y="23.984375" width="50" height="21.890625"></rect><text class="er entityLabel" id="text-entity-TAG-a8da97c4-fe96-50e4-85f7-7ca8b26aba43-attr-1-name" x="0" y="0" transform="translate(55,34.9296875)" style="dominant-baseline: middle; font-family: monospace; font-size: 10.2px;">tag_id</text><rect class="er attributeBoxEven" x="0" y="45.875" width="50" height="21.890625"></rect><text class="er entityLabel" id="text-entity-TAG-a8da97c4-fe96-50e4-85f7-7ca8b26aba43-attr-2-type" x="0" y="0" transform="translate(5,56.8203125)" style="dominant-baseline: middle; font-family: monospace; font-size: 10.2px;">STRING</text><rect class="er attributeBoxEven" x="50" y="45.875" width="50" height="21.890625"></rect><text class="er entityLabel" id="text-entity-TAG-a8da97c4-fe96-50e4-85f7-7ca8b26aba43-attr-2-name" x="0" y="0" transform="translate(55,56.8203125)" style="dominant-baseline: middle; font-family: monospace; font-size: 10.2px;">text</text></g><g id="entity-MEMETAG-c56926e3-715b-5fe1-8cb1-5e9a96c932e4" transform="translate(308.7109375,399.3125 )"><rect class="er entityBox" x="0" y="0" width="100" height="67.765625"></rect><text class="er entityLabel" id="text-entity-MEMETAG-c56926e3-715b-5fe1-8cb1-5e9a96c932e4" x="0" y="0" transform="translate(50,11.9921875)" style="dominant-baseline: middle; text-anchor: middle; font-family: monospace; font-size: 12px;">MEME_TAG</text><rect class="er attributeBoxOdd" x="0" y="23.984375" width="37.71875" height="21.890625"></rect><text class="er entityLabel" id="text-entity-MEMETAG-c56926e3-715b-5fe1-8cb1-5e9a96c932e4-attr-1-type" x="0" y="0" transform="translate(5,34.9296875)" style="dominant-baseline: middle; font-family: monospace; font-size: 10.2px;">INT</text><rect class="er attributeBoxOdd" x="37.71875" y="23.984375" width="62.28125" height="21.890625"></rect><text class="er entityLabel" id="text-entity-MEMETAG-c56926e3-715b-5fe1-8cb1-5e9a96c932e4-attr-1-name" x="0" y="0" transform="translate(42.71875,34.9296875)" style="dominant-baseline: middle; font-family: monospace; font-size: 10.2px;">meme_id</text><rect class="er attributeBoxEven" x="0" y="45.875" width="37.71875" height="21.890625"></rect><text class="er entityLabel" id="text-entity-MEMETAG-c56926e3-715b-5fe1-8cb1-5e9a96c932e4-attr-2-type" x="0" y="0" transform="translate(5,56.8203125)" style="dominant-baseline: middle; font-family: monospace; font-size: 10.2px;">INT</text><rect class="er attributeBoxEven" x="37.71875" y="45.875" width="62.28125" height="21.890625"></rect><text class="er entityLabel" id="text-entity-MEMETAG-c56926e3-715b-5fe1-8cb1-5e9a96c932e4-attr-2-name" x="0" y="0" transform="translate(42.71875,56.8203125)" style="dominant-baseline: middle; font-family: monospace; font-size: 10.2px;">tag_id</text></g><g id="entity-FAVORITES-499fa7cc-2d1a-5e2c-8a73-1ac84b198240" transform="translate(20,399.3125 )"><rect class="er entityBox" x="0" y="0" width="100" height="67.765625"></rect><text class="er entityLabel" id="text-entity-FAVORITES-499fa7cc-2d1a-5e2c-8a73-1ac84b198240" x="0" y="0" transform="translate(50,11.9921875)" style="dominant-baseline: middle; text-anchor: middle; font-family: monospace; font-size: 12px;">FAVORITES</text><rect class="er attributeBoxOdd" x="0" y="23.984375" width="37.71875" height="21.890625"></rect><text class="er entityLabel" id="text-entity-FAVORITES-499fa7cc-2d1a-5e2c-8a73-1ac84b198240-attr-1-type" x="0" y="0" transform="translate(5,34.9296875)" style="dominant-baseline: middle; font-family: monospace; font-size: 10.2px;">INT</text><rect class="er attributeBoxOdd" x="37.71875" y="23.984375" width="62.28125" height="21.890625"></rect><text class="er entityLabel" id="text-entity-FAVORITES-499fa7cc-2d1a-5e2c-8a73-1ac84b198240-attr-1-name" x="0" y="0" transform="translate(42.71875,34.9296875)" style="dominant-baseline: middle; font-family: monospace; font-size: 10.2px;">user_id</text><rect class="er attributeBoxEven" x="0" y="45.875" width="37.71875" height="21.890625"></rect><text class="er entityLabel" id="text-entity-FAVORITES-499fa7cc-2d1a-5e2c-8a73-1ac84b198240-attr-2-type" x="0" y="0" transform="translate(5,56.8203125)" style="dominant-baseline: middle; font-family: monospace; font-size: 10.2px;">INT</text><rect class="er attributeBoxEven" x="37.71875" y="45.875" width="62.28125" height="21.890625"></rect><text class="er entityLabel" id="text-entity-FAVORITES-499fa7cc-2d1a-5e2c-8a73-1ac84b198240-attr-2-name" x="0" y="0" transform="translate(42.71875,56.8203125)" style="dominant-baseline: middle; font-family: monospace; font-size: 10.2px;">meme_id</text></g><rect class="er relationshipLabelBox" x="9.158191680908203" y="242.1318817138672" width="21.6875" height="13.984375"></rect><text class="er relationshipLabel" id="rel310" x="20.001941680908203" y="249.1240692138672" style="text-anchor: middle; dominant-baseline: middle; font-family: monospace; font-size: 12px;">has</text><rect class="er relationshipLabelBox" x="161.51617431640625" y="147.9513702392578" width="57.8125" height="13.984375"></rect><text class="er relationshipLabel" id="rel311" x="190.42242431640625" y="154.9435577392578" style="text-anchor: middle; dominant-baseline: middle; font-family: monospace; font-size: 12px;">searches</text><rect class="er relationshipLabelBox" x="243.16845703125" y="347.729248046875" width="43.359375" height="13.984375"></rect><text class="er relationshipLabel" id="rel312" x="264.84814453125" y="354.721435546875" style="text-anchor: middle; dominant-baseline: middle; font-family: monospace; font-size: 12px;">tagged</text><rect class="er relationshipLabelBox" x="378.69000244140625" y="339.6047668457031" width="50.578125" height="13.984375"></rect><text class="er relationshipLabel" id="rel313" x="403.97906494140625" y="346.5969543457031" style="text-anchor: middle; dominant-baseline: middle; font-family: monospace; font-size: 12px;">used_as</text><rect class="er relationshipLabelBox" x="132.7185821533203" y="345.63153076171875" width="21.703125" height="13.984375"></rect><text class="er relationshipLabel" id="rel314" x="143.5701446533203" y="352.62371826171875" style="text-anchor: middle; dominant-baseline: middle; font-family: monospace; font-size: 12px;">add</text></svg>