<svg id="mermaid-1764092658307" width="100%" xmlns="http://www.w3.org/2000/svg" style="max-width: 100%; height: auto; background-color: transparent;" viewBox="-79.21875 0 797.1467895507812 829.28125" role="graphics-document document" aria-roledescription="er"><style>#mermaid-1764092658307{font-family:"trebuchet ms",verdana,arial,sans-serif;font-size:16px;fill:#ccc;}#mermaid-1764092658307 .error-icon{fill:#a44141;}#mermaid-1764092658307 .error-text{fill:#ddd;stroke:#ddd;}#mermaid-1764092658307 .edge-thickness-normal{stroke-width:2px;}#mermaid-1764092658307 .edge-thickness-thick{stroke-width:3.5px;}#mermaid-1764092658307 .edge-pattern-solid{stroke-dasharray:0;}#mermaid-1764092658307 .edge-pattern-dashed{stroke-dasharray:3;}#mermaid-1764092658307 .edge-pattern-dotted{stroke-dasharray:2;}#mermaid-1764092658307 .marker{fill:lightgrey;stroke:lightgrey;}#mermaid-1764092658307 .marker.cross{stroke:lightgrey;}#mermaid-1764092658307 svg{font-family:"trebuchet ms",verdana,arial,sans-serif;font-size:16px;}#mermaid-1764092658307 .entityBox{fill:#1f2020;stroke:#81B1DB;}#mermaid-1764092658307 .attributeBoxOdd{fill:hsl(0, 0%, 32%);stroke:#81B1DB;}#mermaid-1764092658307 .attributeBoxEven{fill:hsl(0, 0%, 22%);stroke:#81B1DB;}#mermaid-1764092658307 .relationshipLabelBox{fill:hsl(20, 1.5873015873%, 12.3529411765%);opacity:0.7;background-color:hsl(20, 1.5873015873%, 12.3529411765%);}#mermaid-1764092658307 .relationshipLabelBox rect{opacity:0.5;}#mermaid-1764092658307 .relationshipLine{stroke:lightgrey;}#mermaid-1764092658307 .entityTitleText{text-anchor:middle;font-size:18px;fill:#ccc;}#mermaid-1764092658307 #MD_PARENT_START{fill:#f5f5f5!important;stroke:lightgrey!important;stroke-width:1;}#mermaid-1764092658307 #MD_PARENT_END{fill:#f5f5f5!important;stroke:lightgrey!important;stroke-width:1;}#mermaid-1764092658307 :root{--mermaid-font-family:"trebuchet ms",verdana,arial,sans-serif;}</style><g></g><defs><marker id="MD_PARENT_START" refX="0" refY="7" markerWidth="190" markerHeight="240" orient="auto"><path d="M 18,7 L9,13 L1,7 L9,1 Z"></path></marker></defs><defs><marker id="MD_PARENT_END" refX="19" refY="7" markerWidth="20" markerHeight="28" orient="auto"><path d="M 18,7 L9,13 L1,7 L9,1 Z"></path></marker></defs><defs><marker id="ONLY_ONE_START" refX="0" refY="9" markerWidth="18" markerHeight="18" orient="auto"><path stroke="gray" fill="none" d="M9,0 L9,18 M15,0 L15,18"></path></marker></defs><defs><marker id="ONLY_ONE_END" refX="18" refY="9" markerWidth="18" markerHeight="18" orient="auto"><path stroke="gray" fill="none" d="M3,0 L3,18 M9,0 L9,18"></path></marker></defs><defs><marker id="ZERO_OR_ONE_START" refX="0" refY="9" markerWidth="30" markerHeight="18" orient="auto"><circle stroke="gray" fill="white" cx="21" cy="9" r="6"></circle><path stroke="gray" fill="none" d="M9,0 L9,18"></path></marker></defs><defs><marker id="ZERO_OR_ONE_END" refX="30" refY="9" markerWidth="30" markerHeight="18" orient="auto"><circle stroke="gray" fill="white" cx="9" cy="9" r="6"></circle><path stroke="gray" fill="none" d="M21,0 L21,18"></path></marker></defs><defs><marker id="ONE_OR_MORE_START" refX="18" refY="18" markerWidth="45" markerHeight="36" orient="auto"><path stroke="gray" fill="none" d="M0,18 Q 18,0 36,18 Q 18,36 0,18 M42,9 L42,27"></path></marker></defs><defs><marker id="ONE_OR_MORE_END" refX="27" refY="18" markerWidth="45" markerHeight="36" orient="auto"><path stroke="gray" fill="none" d="M3,9 L3,27 M9,18 Q27,0 45,18 Q27,36 9,18"></path></marker></defs><defs><marker id="ZERO_OR_MORE_START" refX="18" refY="18" markerWidth="57" markerHeight="36" orient="auto"><circle stroke="gray" fill="white" cx="48" cy="18" r="6"></circle><path stroke="gray" fill="none" d="M0,18 Q18,0 36,18 Q18,36 0,18"></path></marker></defs><defs><marker id="ZERO_OR_MORE_END" refX="39" refY="18" markerWidth="57" markerHeight="36" orient="auto"><circle stroke="gray" fill="white" cx="9" cy="18" r="6"></circle><path stroke="gray" fill="none" d="M21,18 Q39,0 57,18 Q39,36 21,18"></path></marker></defs><path class="er relationshipLine" d="M463.512,175.109L463.512,183.443C463.512,191.776,463.512,208.443,463.512,225.109C463.512,241.776,463.512,258.443,463.512,266.776L463.512,275.109" style="stroke: gray; fill: none;" marker-end="url(#ZERO_OR_MORE_END)" marker-start="url(#ONLY_ONE_START)"></path><path class="er relationshipLine" d="M517.535,132.009L541.865,147.526C566.194,163.043,614.853,194.076,639.182,230.852C663.512,267.628,663.512,310.146,663.512,352.664C663.512,395.182,663.512,437.701,621.845,473.64C580.178,509.579,496.845,538.938,455.178,553.618L413.512,568.298" style="stroke: gray; fill: none;" marker-end="url(#ZERO_OR_MORE_END)" marker-start="url(#ONLY_ONE_START)"></path><path class="er relationshipLine" d="M20,408.736L8.096,420.649C-3.807,432.563,-27.615,456.391,-39.518,485.921C-51.422,515.451,-51.422,550.682,-51.422,585.914C-51.422,621.146,-51.422,656.378,-10.343,685.61C30.736,714.842,112.893,738.074,153.972,749.69L195.051,761.306" style="stroke: gray; fill: none;" stroke-dasharray="8,8" marker-end="url(#ONE_OR_MORE_END)" marker-start="url(#ONE_OR_MORE_START)"></path><path class="er relationshipLine" d="M563.512,619.75L563.512,631.727C563.512,643.703,563.512,667.656,518.768,691.412C474.025,715.167,384.538,738.725,339.794,750.504L295.051,762.283" style="stroke: gray; fill: none;" marker-end="url(#ZERO_OR_MORE_END)" marker-start="url(#ONLY_ONE_START)"></path><path class="er relationshipLine" d="M438.557,430.219L435.876,438.552C433.194,446.885,427.832,463.552,390.324,485.473C352.816,507.394,283.164,534.57,248.338,548.158L213.512,561.745" style="stroke: gray; fill: none;" marker-end="url(#ZERO_OR_MORE_END)" marker-start="url(#ONLY_ONE_START)"></path><path class="er relationshipLine" d="M505.151,430.219L509.625,438.552C514.099,446.885,523.048,463.552,531.093,483.862C539.138,504.172,546.281,528.125,549.852,540.102L553.423,552.078" style="stroke: gray; fill: none;" marker-end="url(#ZERO_OR_MORE_END)" marker-start="url(#ONLY_ONE_START)"></path><path class="er relationshipLine" d="M97,430.219L99.254,438.552C101.508,446.885,106.016,463.552,111.505,480.219C116.995,496.885,123.467,513.552,126.703,521.885L129.939,530.219" style="stroke: gray; fill: none;" stroke-dasharray="8,8" marker-end="url(#ONE_OR_MORE_END)" marker-start="url(#ONE_OR_MORE_START)"></path><path class="er relationshipLine" d="M132.047,381.661L163.784,398.087C195.521,414.513,258.995,447.366,294.675,473.947C330.355,500.529,338.242,520.839,342.185,530.993L346.129,541.148" style="stroke: gray; fill: none;" stroke-dasharray="8,8" marker-end="url(#ONE_OR_MORE_END)" marker-start="url(#ONE_OR_MORE_START)"></path><g id="entity-USER-6e7e2962-0c6f-577d-a7fd-2ce3a0cfd2c8" transform="translate(409.48828125,20 )"><rect class="er entityBox" x="0" y="0" width="108.046875" height="155.109375"></rect><text class="er entityLabel" id="text-entity-USER-6e7e2962-0c6f-577d-a7fd-2ce3a0cfd2c8" x="0" y="0" style="dominant-baseline: middle; text-anchor: middle; font-size: 12px;" transform="translate(54.0234375,11.9765625)">USER</text><rect class="er attributeBoxOdd" x="0" y="23.953125" width="43.015625" height="21.859375"></rect><text class="er entityLabel" id="text-entity-USER-6e7e2962-0c6f-577d-a7fd-2ce3a0cfd2c8-attr-1-type" x="0" y="0" style="dominant-baseline: middle; font-size: 10.2px;" transform="translate(5,34.8828125)">INT</text><rect class="er attributeBoxOdd" x="43.015625" y="23.953125" width="65.03125" height="21.859375"></rect><text class="er entityLabel" id="text-entity-USER-6e7e2962-0c6f-577d-a7fd-2ce3a0cfd2c8-attr-1-name" x="0" y="0" style="dominant-baseline: middle; font-size: 10.2px;" transform="translate(48.015625,34.8828125)">user_id</text><rect class="er attributeBoxEven" x="0" y="45.8125" width="43.015625" height="21.859375"></rect><text class="er entityLabel" id="text-entity-USER-6e7e2962-0c6f-577d-a7fd-2ce3a0cfd2c8-attr-2-type" x="0" y="0" style="dominant-baseline: middle; font-size: 10.2px;" transform="translate(5,56.7421875)">INT</text><rect class="er attributeBoxEven" x="43.015625" y="45.8125" width="65.03125" height="21.859375"></rect><text class="er entityLabel" id="text-entity-USER-6e7e2962-0c6f-577d-a7fd-2ce3a0cfd2c8-attr-2-name" x="0" y="0" style="dominant-baseline: middle; font-size: 10.2px;" transform="translate(48.015625,56.7421875)">telegram_id</text><rect class="er attributeBoxOdd" x="0" y="67.671875" width="43.015625" height="21.859375"></rect><text class="er entityLabel" id="text-entity-USER-6e7e2962-0c6f-577d-a7fd-2ce3a0cfd2c8-attr-3-type" x="0" y="0" style="dominant-baseline: middle; font-size: 10.2px;" transform="translate(5,78.6015625)">STRING</text><rect class="er attributeBoxOdd" x="43.015625" y="67.671875" width="65.03125" height="21.859375"></rect><text class="er entityLabel" id="text-entity-USER-6e7e2962-0c6f-577d-a7fd-2ce3a0cfd2c8-attr-3-name" x="0" y="0" style="dominant-baseline: middle; font-size: 10.2px;" transform="translate(48.015625,78.6015625)">status</text><rect class="er attributeBoxEven" x="0" y="89.53125" width="43.015625" height="21.859375"></rect><text class="er entityLabel" id="text-entity-USER-6e7e2962-0c6f-577d-a7fd-2ce3a0cfd2c8-attr-4-type" x="0" y="0" style="dominant-baseline: middle; font-size: 10.2px;" transform="translate(5,100.4609375)">DATE</text><rect class="er attributeBoxEven" x="43.015625" y="89.53125" width="65.03125" height="21.859375"></rect><text class="er entityLabel" id="text-entity-USER-6e7e2962-0c6f-577d-a7fd-2ce3a0cfd2c8-attr-4-name" x="0" y="0" style="dominant-baseline: middle; font-size: 10.2px;" transform="translate(48.015625,100.4609375)">created_at</text><rect class="er attributeBoxOdd" x="0" y="111.390625" width="43.015625" height="21.859375"></rect><text class="er entityLabel" id="text-entity-USER-6e7e2962-0c6f-577d-a7fd-2ce3a0cfd2c8-attr-5-type" x="0" y="0" style="dominant-baseline: middle; font-size: 10.2px;" transform="translate(5,122.3203125)">STRING</text><rect class="er attributeBoxOdd" x="43.015625" y="111.390625" width="65.03125" height="21.859375"></rect><text class="er entityLabel" id="text-entity-USER-6e7e2962-0c6f-577d-a7fd-2ce3a0cfd2c8-attr-5-name" x="0" y="0" style="dominant-baseline: middle; font-size: 10.2px;" transform="translate(48.015625,122.3203125)">language</text><rect class="er attributeBoxEven" x="0" y="133.25" width="43.015625" height="21.859375"></rect><text class="er entityLabel" id="text-entity-USER-6e7e2962-0c6f-577d-a7fd-2ce3a0cfd2c8-attr-6-type" x="0" y="0" style="dominant-baseline: middle; font-size: 10.2px;" transform="translate(5,144.1796875)">BOOL</text><rect class="er attributeBoxEven" x="43.015625" y="133.25" width="65.03125" height="21.859375"></rect><text class="er entityLabel" id="text-entity-USER-6e7e2962-0c6f-577d-a7fd-2ce3a0cfd2c8-attr-6-name" x="0" y="0" style="dominant-baseline: middle; font-size: 10.2px;" transform="translate(48.015625,144.1796875)">is_blocked</text></g><g id="entity-MEME-7f98f312-c992-5137-82ec-333312ce0530" transform="translate(20,275.109375 )"><rect class="er entityBox" x="0" y="0" width="112.046875" height="155.109375"></rect><text class="er entityLabel" id="text-entity-MEME-7f98f312-c992-5137-82ec-333312ce0530" x="0" y="0" style="dominant-baseline: middle; text-anchor: middle; font-size: 12px;" transform="translate(56.0234375,11.9765625)">MEME</text><rect class="er attributeBoxOdd" x="0" y="23.953125" width="43.015625" height="21.859375"></rect><text class="er entityLabel" id="text-entity-MEME-7f98f312-c992-5137-82ec-333312ce0530-attr-1-type" x="0" y="0" style="dominant-baseline: middle; font-size: 10.2px;" transform="translate(5,34.8828125)">INT</text><rect class="er attributeBoxOdd" x="43.015625" y="23.953125" width="69.03125" height="21.859375"></rect><text class="er entityLabel" id="text-entity-MEME-7f98f312-c992-5137-82ec-333312ce0530-attr-1-name" x="0" y="0" style="dominant-baseline: middle; font-size: 10.2px;" transform="translate(48.015625,34.8828125)">meme_id</text><rect class="er attributeBoxEven" x="0" y="45.8125" width="43.015625" height="21.859375"></rect><text class="er entityLabel" id="text-entity-MEME-7f98f312-c992-5137-82ec-333312ce0530-attr-2-type" x="0" y="0" style="dominant-baseline: middle; font-size: 10.2px;" transform="translate(5,56.7421875)">STRING</text><rect class="er attributeBoxEven" x="43.015625" y="45.8125" width="69.03125" height="21.859375"></rect><text class="er entityLabel" id="text-entity-MEME-7f98f312-c992-5137-82ec-333312ce0530-attr-2-name" x="0" y="0" style="dominant-baseline: middle; font-size: 10.2px;" transform="translate(48.015625,56.7421875)">title</text><rect class="er attributeBoxOdd" x="0" y="67.671875" width="43.015625" height="21.859375"></rect><text class="er entityLabel" id="text-entity-MEME-7f98f312-c992-5137-82ec-333312ce0530-attr-3-type" x="0" y="0" style="dominant-baseline: middle; font-size: 10.2px;" transform="translate(5,78.6015625)">STRING</text><rect class="er attributeBoxOdd" x="43.015625" y="67.671875" width="69.03125" height="21.859375"></rect><text class="er entityLabel" id="text-entity-MEME-7f98f312-c992-5137-82ec-333312ce0530-attr-3-name" x="0" y="0" style="dominant-baseline: middle; font-size: 10.2px;" transform="translate(48.015625,78.6015625)">description</text><rect class="er attributeBoxEven" x="0" y="89.53125" width="43.015625" height="21.859375"></rect><text class="er entityLabel" id="text-entity-MEME-7f98f312-c992-5137-82ec-333312ce0530-attr-4-type" x="0" y="0" style="dominant-baseline: middle; font-size: 10.2px;" transform="translate(5,100.4609375)">STRING</text><rect class="er attributeBoxEven" x="43.015625" y="89.53125" width="69.03125" height="21.859375"></rect><text class="er entityLabel" id="text-entity-MEME-7f98f312-c992-5137-82ec-333312ce0530-attr-4-name" x="0" y="0" style="dominant-baseline: middle; font-size: 10.2px;" transform="translate(48.015625,100.4609375)">media_type</text><rect class="er attributeBoxOdd" x="0" y="111.390625" width="43.015625" height="21.859375"></rect><text class="er entityLabel" id="text-entity-MEME-7f98f312-c992-5137-82ec-333312ce0530-attr-5-type" x="0" y="0" style="dominant-baseline: middle; font-size: 10.2px;" transform="translate(5,122.3203125)">STRING</text><rect class="er attributeBoxOdd" x="43.015625" y="111.390625" width="69.03125" height="21.859375"></rect><text class="er entityLabel" id="text-entity-MEME-7f98f312-c992-5137-82ec-333312ce0530-attr-5-name" x="0" y="0" style="dominant-baseline: middle; font-size: 10.2px;" transform="translate(48.015625,122.3203125)">file_id</text><rect class="er attributeBoxEven" x="0" y="133.25" width="43.015625" height="21.859375"></rect><text class="er entityLabel" id="text-entity-MEME-7f98f312-c992-5137-82ec-333312ce0530-attr-6-type" x="0" y="0" style="dominant-baseline: middle; font-size: 10.2px;" transform="translate(5,144.1796875)">INT</text><rect class="er attributeBoxEven" x="43.015625" y="133.25" width="69.03125" height="21.859375"></rect><text class="er entityLabel" id="text-entity-MEME-7f98f312-c992-5137-82ec-333312ce0530-attr-6-name" x="0" y="0" style="dominant-baseline: middle; font-size: 10.2px;" transform="translate(48.015625,144.1796875)">count_in_fav</text></g><g id="entity-TAG-a8da97c4-fe96-50e4-85f7-7ca8b26aba43" transform="translate(513.51171875,552.078125 )"><rect class="er entityBox" x="0" y="0" width="100" height="67.671875"></rect><text class="er entityLabel" id="text-entity-TAG-a8da97c4-fe96-50e4-85f7-7ca8b26aba43" x="0" y="0" style="dominant-baseline: middle; text-anchor: middle; font-size: 12px;" transform="translate(50,11.9765625)">TAG</text><rect class="er attributeBoxOdd" x="0" y="23.953125" width="52.2734375" height="21.859375"></rect><text class="er entityLabel" id="text-entity-TAG-a8da97c4-fe96-50e4-85f7-7ca8b26aba43-attr-1-type" x="0" y="0" style="dominant-baseline: middle; font-size: 10.2px;" transform="translate(5,34.8828125)">INT</text><rect class="er attributeBoxOdd" x="52.2734375" y="23.953125" width="47.7265625" height="21.859375"></rect><text class="er entityLabel" id="text-entity-TAG-a8da97c4-fe96-50e4-85f7-7ca8b26aba43-attr-1-name" x="0" y="0" style="dominant-baseline: middle; font-size: 10.2px;" transform="translate(57.2734375,34.8828125)">tag_id</text><rect class="er attributeBoxEven" x="0" y="45.8125" width="52.2734375" height="21.859375"></rect><text class="er entityLabel" id="text-entity-TAG-a8da97c4-fe96-50e4-85f7-7ca8b26aba43-attr-2-type" x="0" y="0" style="dominant-baseline: middle; font-size: 10.2px;" transform="translate(5,56.7421875)">STRING</text><rect class="er attributeBoxEven" x="52.2734375" y="45.8125" width="47.7265625" height="21.859375"></rect><text class="er entityLabel" id="text-entity-TAG-a8da97c4-fe96-50e4-85f7-7ca8b26aba43-attr-2-name" x="0" y="0" style="dominant-baseline: middle; font-size: 10.2px;" transform="translate(57.2734375,56.7421875)">text</text></g><g id="entity-MEMETAG-c8b84c1a-79ad-5bbc-af6d-b7b80942deaf" transform="translate(195.05078125,741.609375 )"><rect class="er entityBox" x="0" y="0" width="100" height="67.671875"></rect><text class="er entityLabel" id="text-entity-MEMETAG-c8b84c1a-79ad-5bbc-af6d-b7b80942deaf" x="0" y="0" style="dominant-baseline: middle; text-anchor: middle; font-size: 12px;" transform="translate(50,11.9765625)">MEMETAG</text><rect class="er attributeBoxOdd" x="0" y="23.953125" width="36.6328125" height="21.859375"></rect><text class="er entityLabel" id="text-entity-MEMETAG-c8b84c1a-79ad-5bbc-af6d-b7b80942deaf-attr-1-type" x="0" y="0" style="dominant-baseline: middle; font-size: 10.2px;" transform="translate(5,34.8828125)">INT</text><rect class="er attributeBoxOdd" x="36.6328125" y="23.953125" width="63.3671875" height="21.859375"></rect><text class="er entityLabel" id="text-entity-MEMETAG-c8b84c1a-79ad-5bbc-af6d-b7b80942deaf-attr-1-name" x="0" y="0" style="dominant-baseline: middle; font-size: 10.2px;" transform="translate(41.6328125,34.8828125)">meme_id</text><rect class="er attributeBoxEven" x="0" y="45.8125" width="36.6328125" height="21.859375"></rect><text class="er entityLabel" id="text-entity-MEMETAG-c8b84c1a-79ad-5bbc-af6d-b7b80942deaf-attr-2-type" x="0" y="0" style="dominant-baseline: middle; font-size: 10.2px;" transform="translate(5,56.7421875)">INT</text><rect class="er attributeBoxEven" x="36.6328125" y="45.8125" width="63.3671875" height="21.859375"></rect><text class="er entityLabel" id="text-entity-MEMETAG-c8b84c1a-79ad-5bbc-af6d-b7b80942deaf-attr-2-name" x="0" y="0" style="dominant-baseline: middle; font-size: 10.2px;" transform="translate(41.6328125,56.7421875)">tag_id</text></g><g id="entity-SEARCHREQUEST-c703ba1f-a2a5-586c-a5d0-79f01250e0e8" transform="translate(400.48046875,275.109375 )"><rect class="er entityBox" x="0" y="0" width="126.0625" height="155.109375"></rect><text class="er entityLabel" id="text-entity-SEARCHREQUEST-c703ba1f-a2a5-586c-a5d0-79f01250e0e8" x="0" y="0" style="dominant-baseline: middle; text-anchor: middle; font-size: 12px;" transform="translate(63.03125,11.9765625)">SEARCH_REQUEST</text><rect class="er attributeBoxOdd" x="0" y="23.953125" width="46.4765625" height="21.859375"></rect><text class="er entityLabel" id="text-entity-SEARCHREQUEST-c703ba1f-a2a5-586c-a5d0-79f01250e0e8-attr-1-type" x="0" y="0" style="dominant-baseline: middle; font-size: 10.2px;" transform="translate(5,34.8828125)">INT</text><rect class="er attributeBoxOdd" x="46.4765625" y="23.953125" width="79.5859375" height="21.859375"></rect><text class="er entityLabel" id="text-entity-SEARCHREQUEST-c703ba1f-a2a5-586c-a5d0-79f01250e0e8-attr-1-name" x="0" y="0" style="dominant-baseline: middle; font-size: 10.2px;" transform="translate(51.4765625,34.8828125)">request_id</text><rect class="er attributeBoxEven" x="0" y="45.8125" width="46.4765625" height="21.859375"></rect><text class="er entityLabel" id="text-entity-SEARCHREQUEST-c703ba1f-a2a5-586c-a5d0-79f01250e0e8-attr-2-type" x="0" y="0" style="dominant-baseline: middle; font-size: 10.2px;" transform="translate(5,56.7421875)">INT</text><rect class="er attributeBoxEven" x="46.4765625" y="45.8125" width="79.5859375" height="21.859375"></rect><text class="er entityLabel" id="text-entity-SEARCHREQUEST-c703ba1f-a2a5-586c-a5d0-79f01250e0e8-attr-2-name" x="0" y="0" style="dominant-baseline: middle; font-size: 10.2px;" transform="translate(51.4765625,56.7421875)">user_id</text><rect class="er attributeBoxOdd" x="0" y="67.671875" width="46.4765625" height="21.859375"></rect><text class="er entityLabel" id="text-entity-SEARCHREQUEST-c703ba1f-a2a5-586c-a5d0-79f01250e0e8-attr-3-type" x="0" y="0" style="dominant-baseline: middle; font-size: 10.2px;" transform="translate(5,78.6015625)">STRING</text><rect class="er attributeBoxOdd" x="46.4765625" y="67.671875" width="79.5859375" height="21.859375"></rect><text class="er entityLabel" id="text-entity-SEARCHREQUEST-c703ba1f-a2a5-586c-a5d0-79f01250e0e8-attr-3-name" x="0" y="0" style="dominant-baseline: middle; font-size: 10.2px;" transform="translate(51.4765625,78.6015625)">user_text</text><rect class="er attributeBoxEven" x="0" y="89.53125" width="46.4765625" height="21.859375"></rect><text class="er entityLabel" id="text-entity-SEARCHREQUEST-c703ba1f-a2a5-586c-a5d0-79f01250e0e8-attr-4-type" x="0" y="0" style="dominant-baseline: middle; font-size: 10.2px;" transform="translate(5,100.4609375)">DATE</text><rect class="er attributeBoxEven" x="46.4765625" y="89.53125" width="79.5859375" height="21.859375"></rect><text class="er entityLabel" id="text-entity-SEARCHREQUEST-c703ba1f-a2a5-586c-a5d0-79f01250e0e8-attr-4-name" x="0" y="0" style="dominant-baseline: middle; font-size: 10.2px;" transform="translate(51.4765625,100.4609375)">requested_at</text><rect class="er attributeBoxOdd" x="0" y="111.390625" width="46.4765625" height="21.859375"></rect><text class="er entityLabel" id="text-entity-SEARCHREQUEST-c703ba1f-a2a5-586c-a5d0-79f01250e0e8-attr-5-type" x="0" y="0" style="dominant-baseline: middle; font-size: 10.2px;" transform="translate(5,122.3203125)">INT</text><rect class="er attributeBoxOdd" x="46.4765625" y="111.390625" width="79.5859375" height="21.859375"></rect><text class="er entityLabel" id="text-entity-SEARCHREQUEST-c703ba1f-a2a5-586c-a5d0-79f01250e0e8-attr-5-name" x="0" y="0" style="dominant-baseline: middle; font-size: 10.2px;" transform="translate(51.4765625,122.3203125)">result_amount</text><rect class="er attributeBoxEven" x="0" y="133.25" width="46.4765625" height="21.859375"></rect><text class="er entityLabel" id="text-entity-SEARCHREQUEST-c703ba1f-a2a5-586c-a5d0-79f01250e0e8-attr-6-type" x="0" y="0" style="dominant-baseline: middle; font-size: 10.2px;" transform="translate(5,144.1796875)">BOOL</text><rect class="er attributeBoxEven" x="46.4765625" y="133.25" width="79.5859375" height="21.859375"></rect><text class="er entityLabel" id="text-entity-SEARCHREQUEST-c703ba1f-a2a5-586c-a5d0-79f01250e0e8-attr-6-name" x="0" y="0" style="dominant-baseline: middle; font-size: 10.2px;" transform="translate(51.4765625,144.1796875)">is_successful</text></g><g id="entity-SEARCHRESULT-0d6041d9-b5b1-51ec-a75f-3f656d260cd2" transform="translate(89.62109375,530.21875 )"><rect class="er entityBox" x="0" y="0" width="123.890625" height="111.390625"></rect><text class="er entityLabel" id="text-entity-SEARCHRESULT-0d6041d9-b5b1-51ec-a75f-3f656d260cd2" x="0" y="0" style="dominant-baseline: middle; text-anchor: middle; font-size: 12px;" transform="translate(61.9453125,11.9765625)">SEARCH_RESULT</text><rect class="er attributeBoxOdd" x="0" y="23.953125" width="25.28125" height="21.859375"></rect><text class="er entityLabel" id="text-entity-SEARCHRESULT-0d6041d9-b5b1-51ec-a75f-3f656d260cd2-attr-1-type" x="0" y="0" style="dominant-baseline: middle; font-size: 10.2px;" transform="translate(5,34.8828125)">INT</text><rect class="er attributeBoxOdd" x="25.28125" y="23.953125" width="98.609375" height="21.859375"></rect><text class="er entityLabel" id="text-entity-SEARCHRESULT-0d6041d9-b5b1-51ec-a75f-3f656d260cd2-attr-1-name" x="0" y="0" style="dominant-baseline: middle; font-size: 10.2px;" transform="translate(30.28125,34.8828125)">request_id</text><rect class="er attributeBoxEven" x="0" y="45.8125" width="25.28125" height="21.859375"></rect><text class="er entityLabel" id="text-entity-SEARCHRESULT-0d6041d9-b5b1-51ec-a75f-3f656d260cd2-attr-2-type" x="0" y="0" style="dominant-baseline: middle; font-size: 10.2px;" transform="translate(5,56.7421875)">INT</text><rect class="er attributeBoxEven" x="25.28125" y="45.8125" width="98.609375" height="21.859375"></rect><text class="er entityLabel" id="text-entity-SEARCHRESULT-0d6041d9-b5b1-51ec-a75f-3f656d260cd2-attr-2-name" x="0" y="0" style="dominant-baseline: middle; font-size: 10.2px;" transform="translate(30.28125,56.7421875)">meme_id</text><rect class="er attributeBoxOdd" x="0" y="67.671875" width="25.28125" height="21.859375"></rect><text class="er entityLabel" id="text-entity-SEARCHRESULT-0d6041d9-b5b1-51ec-a75f-3f656d260cd2-attr-3-type" x="0" y="0" style="dominant-baseline: middle; font-size: 10.2px;" transform="translate(5,78.6015625)">INT</text><rect class="er attributeBoxOdd" x="25.28125" y="67.671875" width="98.609375" height="21.859375"></rect><text class="er entityLabel" id="text-entity-SEARCHRESULT-0d6041d9-b5b1-51ec-a75f-3f656d260cd2-attr-3-name" x="0" y="0" style="dominant-baseline: middle; font-size: 10.2px;" transform="translate(30.28125,78.6015625)">result_amount</text><rect class="er attributeBoxEven" x="0" y="89.53125" width="25.28125" height="21.859375"></rect><text class="er entityLabel" id="text-entity-SEARCHRESULT-0d6041d9-b5b1-51ec-a75f-3f656d260cd2-attr-4-type" x="0" y="0" style="dominant-baseline: middle; font-size: 10.2px;" transform="translate(5,100.4609375)">INT</text><rect class="er attributeBoxEven" x="25.28125" y="89.53125" width="98.609375" height="21.859375"></rect><text class="er entityLabel" id="text-entity-SEARCHRESULT-0d6041d9-b5b1-51ec-a75f-3f656d260cd2-attr-4-name" x="0" y="0" style="dominant-baseline: middle; font-size: 10.2px;" transform="translate(30.28125,100.4609375)">meme_res_position</text></g><g id="entity-FAVORITES-499fa7cc-2d1a-5e2c-8a73-1ac84b198240" transform="translate(313.51171875,541.1484375 )"><rect class="er entityBox" x="0" y="0" width="100" height="89.53125"></rect><text class="er entityLabel" id="text-entity-FAVORITES-499fa7cc-2d1a-5e2c-8a73-1ac84b198240" x="0" y="0" style="dominant-baseline: middle; text-anchor: middle; font-size: 12px;" transform="translate(50,11.9765625)">FAVORITES</text><rect class="er attributeBoxOdd" x="0" y="23.953125" width="40.46875" height="21.859375"></rect><text class="er entityLabel" id="text-entity-FAVORITES-499fa7cc-2d1a-5e2c-8a73-1ac84b198240-attr-1-type" x="0" y="0" style="dominant-baseline: middle; font-size: 10.2px;" transform="translate(5,34.8828125)">INT</text><rect class="er attributeBoxOdd" x="40.46875" y="23.953125" width="59.53125" height="21.859375"></rect><text class="er entityLabel" id="text-entity-FAVORITES-499fa7cc-2d1a-5e2c-8a73-1ac84b198240-attr-1-name" x="0" y="0" style="dominant-baseline: middle; font-size: 10.2px;" transform="translate(45.46875,34.8828125)">user_id</text><rect class="er attributeBoxEven" x="0" y="45.8125" width="40.46875" height="21.859375"></rect><text class="er entityLabel" id="text-entity-FAVORITES-499fa7cc-2d1a-5e2c-8a73-1ac84b198240-attr-2-type" x="0" y="0" style="dominant-baseline: middle; font-size: 10.2px;" transform="translate(5,56.7421875)">INT</text><rect class="er attributeBoxEven" x="40.46875" y="45.8125" width="59.53125" height="21.859375"></rect><text class="er entityLabel" id="text-entity-FAVORITES-499fa7cc-2d1a-5e2c-8a73-1ac84b198240-attr-2-name" x="0" y="0" style="dominant-baseline: middle; font-size: 10.2px;" transform="translate(45.46875,56.7421875)">meme_id</text><rect class="er attributeBoxOdd" x="0" y="67.671875" width="40.46875" height="21.859375"></rect><text class="er entityLabel" id="text-entity-FAVORITES-499fa7cc-2d1a-5e2c-8a73-1ac84b198240-attr-3-type" x="0" y="0" style="dominant-baseline: middle; font-size: 10.2px;" transform="translate(5,78.6015625)">DATE</text><rect class="er attributeBoxOdd" x="40.46875" y="67.671875" width="59.53125" height="21.859375"></rect><text class="er entityLabel" id="text-entity-FAVORITES-499fa7cc-2d1a-5e2c-8a73-1ac84b198240-attr-3-name" x="0" y="0" style="dominant-baseline: middle; font-size: 10.2px;" transform="translate(45.46875,78.6015625)">added_at</text></g><rect class="er relationshipLabelBox" x="451.2385559082031" y="218.1324462890625" width="24.546875" height="13.953125"></rect><text class="er relationshipLabel" id="rel8147" x="463.5119934082031" y="225.1090087890625" style="text-anchor: middle; dominant-baseline: middle; font-size: 12px;">does</text><rect class="er relationshipLabelBox" x="626.5999145507812" y="385.09893798828125" width="71.328125" height="13.953125"></rect><text class="er relationshipLabel" id="rel8148" x="662.2639770507812" y="392.07550048828125" style="text-anchor: middle; dominant-baseline: middle; font-size: 12px;">has_favorites</text><rect class="er relationshipLabelBox" x="-59.215702056884766" y="644.2544555664062" width="36.359375" height="13.953125"></rect><text class="er relationshipLabel" id="rel8149" x="-41.036014556884766" y="651.2310180664062" style="text-anchor: middle; dominant-baseline: middle; font-size: 12px;">tagged</text><rect class="er relationshipLabelBox" x="430.96868896484375" y="711.2145385742188" width="42.109375" height="13.953125"></rect><text class="er relationshipLabel" id="rel8150" x="452.02337646484375" y="718.1911010742188" style="text-anchor: middle; dominant-baseline: middle; font-size: 12px;">used_as</text><rect class="er relationshipLabelBox" x="318.623779296875" y="504.46051025390625" width="38.625" height="13.9375"></rect><text class="er relationshipLabel" id="rel8151" x="337.936279296875" y="511.42926025390625" style="text-anchor: middle; dominant-baseline: middle; font-size: 12px;">returns</text><rect class="er relationshipLabelBox" x="513.9808349609375" y="482.56439208984375" width="38.609375" height="13.953125"></rect><text class="er relationshipLabel" id="rel8152" x="533.2855224609375" y="489.54095458984375" style="text-anchor: middle; dominant-baseline: middle; font-size: 12px;">returns</text><rect class="er relationshipLabelBox" x="87.62774658203125" y="473.8330993652344" width="48.140625" height="13.9375"></rect><text class="er relationshipLabel" id="rel8153" x="111.69805908203125" y="480.8018493652344" style="text-anchor: middle; dominant-baseline: middle; font-size: 12px;">found_as</text><rect class="er relationshipLabelBox" x="227.20742797851562" y="439.4300537109375" width="50.40625" height="13.9375"></rect><text class="er relationshipLabel" id="rel8154" x="252.41055297851562" y="446.3988037109375" style="text-anchor: middle; dominant-baseline: middle; font-size: 12px;">added_to</text></svg>